<svg width="62" height="62" viewBox="0 0 62 62" fill="none" xmlns="http://www.w3.org/2000/svg">
<g filter="url(#filter0_d_668_29477)">
<path d="M31 3C44.2547 3 55 13.7453 55 27C55 40.2547 44.2547 51.0005 31 51.0005C17.7453 51.0005 7 40.2547 7 27C7 13.7453 17.7453 3 31 3Z" fill="#F4F0D3"/>
<path d="M56.5 27C56.5 12.9169 45.0831 1.5 31 1.5C16.9169 1.5 5.5 12.9169 5.5 27C5.5 41.0831 16.9168 52.5005 31 52.5005C45.0832 52.5005 56.5 41.0831 56.5 27Z" stroke="#FCFF3C" stroke-width="3"/>
</g>
<mask id="mask0_668_29477" style="mask-type:luminance" maskUnits="userSpaceOnUse" x="7" y="3" width="48" height="48">
<path d="M31 3C44.2547 3 55 13.7453 55 27C55 40.2547 44.2547 51.0005 31 51.0005C17.7453 51.0005 7 40.2547 7 27C7 13.7453 17.7453 3 31 3Z" fill="white"/>
</mask>
<g mask="url(#mask0_668_29477)">
<path d="M54.7527 43.9472L27.9596 17.1536L49.3979 -4.28464L46.683 -7L25.2447 14.4382L8.53114 -2.27488L5.80762 0.44864L38.3603 33.0018L15.483 55.8805L18.1979 58.5958L41.0761 35.7176L52.0292 46.6702L54.7527 43.9472Z" fill="#EFC75E"/>
<path d="M37.2421 19.2544L37.2383 13.082L50.1983 25.6369L50.1872 31.7939L37.2421 19.2544Z" fill="#CCC7A5"/>
<path d="M67.9583 14.0305L67.9319 7.78906L50.2002 25.5601V31.815L67.9583 14.0305Z" fill="#DAD5B1"/>
<path d="M37.1973 13.0883L52.6437 -2.59375L65.6037 10.636L50.2024 26.0181L37.1973 13.0883Z" fill="#E4DFBD"/>
<path d="M25.2412 13.0742C30.2754 13.0742 34.3564 17.1379 34.3564 22.1505C34.3564 22.248 34.3117 24.5808 33.5279 26.244C31.2824 31.3997 25.2488 37.1112 25.2407 37.0814C25.2311 37.1011 19.2234 31.4237 16.9674 26.2747C16.2978 25.055 16.125 22.3493 16.125 22.1501C16.1255 17.1379 20.2069 13.0742 25.2412 13.0742Z" fill="#E2574C"/>
<path d="M25.2404 17.3984C22.5899 17.3984 20.4404 19.5474 20.4404 22.1984C20.4404 24.849 22.5899 26.9984 25.2404 26.9984C27.891 26.9984 30.0404 24.849 30.0404 22.1984C30.0404 19.5474 27.891 17.3984 25.2404 17.3984ZM25.2404 25.0789C23.6502 25.0789 22.3604 23.7892 22.3604 22.1989C22.3604 20.6087 23.6502 19.3189 25.2404 19.3189C26.8307 19.3189 28.1204 20.6082 28.1204 22.1989C28.1204 23.7896 26.8307 25.0789 25.2404 25.0789Z" fill="white"/>
</g>
<defs>
<filter id="filter0_d_668_29477" x="0" y="0" width="62" height="62" filterUnits="userSpaceOnUse" color-interpolation-filters="sRGB">
<feFlood flood-opacity="0" result="BackgroundImageFix"/>
<feColorMatrix in="SourceAlpha" type="matrix" values="0 0 0 0 0 0 0 0 0 0 0 0 0 0 0 0 0 0 127 0" result="hardAlpha"/>
<feOffset dy="4"/>
<feGaussianBlur stdDeviation="2"/>
<feComposite in2="hardAlpha" operator="out"/>
<feColorMatrix type="matrix" values="0 0 0 0 0 0 0 0 0 0 0 0 0 0 0 0 0 0 0.5 0"/>
<feBlend mode="normal" in2="BackgroundImageFix" result="effect1_dropShadow_668_29477"/>
<feBlend mode="normal" in="SourceGraphic" in2="effect1_dropShadow_668_29477" result="shape"/>
</filter>
</defs>
</svg>
