<svg width="100" height="100" viewBox="0 0 100 100" fill="none" xmlns="http://www.w3.org/2000/svg">
<path d="M50 0C22.386 0 0 22.386 0 50C0 77.614 22.386 100 50 100C77.614 100 100 77.614 100 50C100 22.386 77.614 0 50 0Z" fill="#3DB39E"/>
<path d="M79.2218 72.6754C77.8068 71.2604 75.7718 70.8734 73.9968 71.4764L69.2748 66.7534C72.6398 62.3294 74.6418 56.8114 74.6418 50.8224C74.6418 36.2764 62.8498 24.4844 48.3028 24.4844C33.7568 24.4844 21.9648 36.2764 21.9648 50.8224C21.9648 65.3694 33.7568 77.1614 48.3028 77.1614C54.2908 77.1614 59.8098 75.1594 64.2338 71.7934L68.9568 76.5164C68.3548 78.2894 68.7418 80.3264 70.1558 81.7404L79.0788 90.6634C82.5708 88.1614 85.7338 85.2284 88.4748 81.9304L79.2218 72.6754Z" fill="#37A18E"/>
<path d="M68.5348 63.4648L63.4648 68.5358L82.7198 87.7908C84.5288 86.2238 86.2228 84.5278 87.7908 82.7198L68.5348 63.4648Z" fill="#F5F5F5"/>
<path d="M48.5 22C63.136 22 75 33.864 75 48.5C75 63.135 63.136 75 48.5 75C33.864 75 22 63.135 22 48.5C22 33.864 33.864 22 48.5 22Z" fill="white"/>
<path d="M48.5 27C60.374 27 70 36.626 70 48.5C70 60.374 60.374 70 48.5 70C36.626 70 27 60.374 27 48.5C27 36.626 36.626 27 48.5 27Z" fill="#82CEE8"/>
<path d="M38.1889 53.3792C37.6899 52.8792 36.8789 52.8792 36.3789 53.3792C35.8789 53.8792 35.8789 54.6902 36.3789 55.1902L41.8099 60.6202C42.3099 61.1202 43.1199 61.1202 43.6199 60.6202C44.1199 60.1212 44.1199 59.3102 43.6199 58.8102L38.1889 53.3792ZM49.6239 57.8292L39.1699 47.3752C38.6749 46.8802 37.8709 46.8802 37.3759 47.3752C36.8809 47.8702 36.8809 48.6742 37.3759 49.1692L47.8299 59.6232C48.3249 60.1182 49.1289 60.1182 49.6239 59.6232C50.1189 59.1282 50.1189 58.3252 49.6239 57.8292Z" fill="#A8DDEF"/>
<path d="M79.6063 70.4853C77.6103 68.4893 74.3743 68.4893 72.3773 70.4853L70.4853 72.3773C68.4893 74.3743 68.4893 77.6103 70.4853 79.6063L80.4923 89.6133C83.9113 86.9773 86.9773 83.9113 89.6133 80.4923L79.6063 70.4853Z" fill="#EFC75E"/>
<path d="M72.5073 77.6067C70.5143 75.6137 70.5123 72.3837 72.4993 70.3867L72.3783 70.4857L70.4863 72.3777C68.4903 74.3747 68.4903 77.6107 70.4863 79.6067L80.4933 89.6137C81.2483 89.0317 81.9843 88.4267 82.7043 87.8037L72.5073 77.6067Z" fill="#D7B354"/>
<path d="M48.5 27C41.799 27 35.816 30.067 31.873 34.873C35.583 31.829 40.327 30 45.5 30C57.374 30 67 39.626 67 51.5C67 56.673 65.171 61.417 62.127 65.127C66.933 61.184 70 55.201 70 48.5C70 36.626 60.374 27 48.5 27Z" fill="#72B5CC"/>
</svg>
